# xmcd CD database file
#
# Track frame offsets:
#	150
#	16069
#	36232
#	52823
#	66157
#	80301
#	94829
#	110234
#	125978
#	139710
#	153170
#	165539
#	179826
#	196578
#	211785
#	228754
#	244942
#	260267
#	279911
#	296524
#	311820
#	327704
#	341759
#	353492
#
# Disc length: 4940 seconds
#
# Revision: 0
# Processed by: cddbd v1.5.1PL0 Copyright (c) Steve Scherf et al.
# Submitted via: CDex 1.51
#
DISCID=5c134a18
DTITLE=Guy Clark - Cold Dog Soup 1999 - The Dark 2002
DYEAR=1900
DGENRE=Country
TTITLE0=01 - Cold Dog Soup
TTITLE1=02 - Fort Worth Blues
TTITLE2=03 - Sis Draper
TTITLE3=04 - Ain't No Trouble To Me
TTITLE4=05 - Water Under the Bridge
TTITLE5=06 - Forever, For Always, For Certain
TTITLE6=07 - Men Will Be Boys
TTITLE7=08 - Indian Head Penny
TTITLE8=09 - Bunkhouse Blues
TTITLE9=10 - Red River
TTITLE10=11 - Die Tryin'
TTITLE11=12 - Be Gone Forever
TTITLE12=01 - Mud
TTITLE13=02 - Arizona Star
TTITLE14=03 - Magnolia Wind
TTITLE15=04 - Soldier's Joy 1864
TTITLE16=05 - Dancin' Days
TTITLE17=06 - Homeless
TTITLE18=07 - Off The Map
TTITLE19=08 - Bag of Bones
TTITLE20=09 - She Loves To Ride Horses
TTITLE21=10 - Rex's Blues
TTITLE22=11 - Queenie's Song
TTITLE23=12 - The Dark
EXTD=
EXTT0=
EXTT1=
EXTT2=
EXTT3=
EXTT4=
EXTT5=
EXTT6=
EXTT7=
EXTT8=
EXTT9=
EXTT10=
EXTT11=
EXTT12=
EXTT13=
EXTT14=
EXTT15=
EXTT16=
EXTT17=
EXTT18=
EXTT19=
EXTT20=
EXTT21=
EXTT22=
EXTT23=
PLAYORDER=
